<svg width="247" height="78" viewBox="0 0 247 78" xmlns="http://www.w3.org/2000/svg"><g fill="#FFF" fill-rule="evenodd"><path d="M34.12 6.113L5.912 22.63a.939.939 0 0 0 .213-.15 1.183 1.183 0 0 0-.215.377c.01-.033.024-.114.024-.265v32.98a1.413 1.413 0 0 0-.024-.273 1.108 1.108 0 0 0 .203.352l-.034-.03a1.588 1.588 0 0 0-.19-.127L34.08 71.78a1.111 1.111 0 0 0-.223-.105c.05.012.135.022.23.022.092 0 .177-.01.23-.022a1.02 1.02 0 0 0-.223.105l28.443-16.303c-.08.046-.143.09-.19.127l-.035.03a1.153 1.153 0 0 0 .197-.342 1.422 1.422 0 0 0-.026.277V22.593c0 .15.013.233.023.267a.942.942 0 0 0-.087-.19.864.864 0 0 0-.12-.17c.003 0 .012.01.033.027.047.038.108.08.188.127L34.05 6.11c.08.048.148.08.204.1l.04.016a1.07 1.07 0 0 0-.416 0 .928.928 0 0 0 .24-.113zM31.14.935c1.62-.95 4.25-.955 5.87-.013l28.472 16.544c1.622.942 2.936 3.236 2.936 5.126v32.98c0 1.888-1.32 4.176-2.95 5.11L37.025 76.987c-1.63.934-4.265.93-5.892-.01L2.943 60.692C1.316 59.754 0 57.46 0 55.57V22.593c0-1.89 1.315-4.19 2.935-5.14L31.14.936z"/><path d="M33.46 31.237c.477-.28 1.256-.277 1.732 0l5.97 3.48c.48.28.868.965.868 1.502v6.98c0 .55-.393 1.22-.87 1.494l-5.968 3.434c-.48.276-1.258.274-1.73 0l-5.923-3.434c-.477-.276-.863-.957-.863-1.494v-6.98c0-.55.39-1.224.862-1.502l5.92-3.48zm-1.32 26.041V76.37h4.384V55.808H32.14M4.147 25.1l15.263 8.813 1.272.734 2.19-3.795-1.27-.735-15.263-8.81-1.273-.736-2.192 3.797m58.904-3.062l-15.263 8.81-1.272.736 2.192 3.795 1.272-.734L63.97 25.1l1.27-.733-2.19-3.796"/><path d="M34.213 56.856c9.27 0 16.787-7.583 16.787-16.938 0-9.355-7.516-16.938-16.787-16.938-9.27 0-16.787 7.583-16.787 16.938 0 9.355 7.516 16.938 16.787 16.938zm0-3.85c-7.164 0-12.972-5.86-12.972-13.088 0-7.23 5.81-13.09 12.973-13.09 7.164 0 12.972 5.86 12.972 13.09 0 7.23-5.808 13.09-12.972 13.09zm57.309 4.066V19.568c0-.52.23-.92.694-1.2.462-.28 1.008-.418 1.637-.418.63 0 1.175.14 1.638.418.464.28.695.68.695 1.2V35.64h15.045V19.57c0-.52.23-.92.694-1.2.463-.28 1.01-.418 1.638-.418.63 0 1.175.14 1.638.418.462.28.693.68.693 1.2v37.504c0 .52-.23.93-.693 1.228-.463.297-1.01.446-1.638.446-.63 0-1.175-.15-1.638-.446-.463-.298-.694-.707-.694-1.228V39.548H96.185v17.524c0 .52-.23.93-.694 1.228-.462.297-1.007.446-1.637.446-.63 0-1.175-.15-1.637-.446-.463-.298-.694-.707-.694-1.228zM122.5 22.36c0-.708.278-1.322.833-1.843.555-.52 1.24-.78 2.054-.78.777 0 1.443.26 1.998.78.556.52.833 1.135.833 1.842 0 .706-.277 1.33-.833 1.868-.555.54-1.22.81-1.998.81-.777 0-1.453-.27-2.027-.81-.573-.54-.86-1.162-.86-1.87zm.61 34.712v-23.16c0-.484.223-.875.667-1.173.444-.298.98-.447 1.61-.447.666 0 1.22.15 1.665.446.444.297.667.688.667 1.17V57.07c0 .41-.233.79-.695 1.144-.463.354-1.01.53-1.638.53-.63 0-1.166-.167-1.61-.502-.444-.335-.666-.726-.666-1.172zm9.105 6.92c0-2.716 1.5-4.743 4.497-6.083-1.887-.708-2.83-1.954-2.83-3.74 0-1.712.924-3.088 2.775-4.13-2.11-1.71-3.165-4.055-3.165-7.032v-1.842c0-2.716.907-4.93 2.72-6.64 1.814-1.712 4.2-2.568 7.162-2.568 2.517 0 4.682.725 6.496 2.177 1.11-2.42 2.368-3.628 3.775-3.628.592 0 1.073.177 1.443.53.37.354.555.754.555 1.2 0 .558-.314.986-.943 1.284-1.26.335-2.258 1.117-2.998 2.345 1.147 1.376 1.72 3.144 1.72 5.3v1.843c0 2.68-.943 4.893-2.83 6.64-1.888 1.75-4.294 2.624-7.218 2.624-1.517 0-2.887-.28-4.108-.837-.925.558-1.388 1.19-1.388 1.898 0 .707.426 1.256 1.277 1.646.85.39 1.906.632 3.164.725a41.66 41.66 0 0 1 4.108.53c1.48.26 2.85.595 4.108 1.004a6.683 6.683 0 0 1 3.164 2.176c.852 1.042 1.277 2.363 1.277 3.962 0 2.642-1.045 4.66-3.136 6.056-2.09 1.395-4.802 2.093-8.133 2.093-3.33 0-6.08-.68-8.244-2.037-2.165-1.36-3.248-3.19-3.248-5.498zm4.386-.502c0 1.45.64 2.614 1.917 3.488 1.276.874 2.988 1.312 5.135 1.312 2.072 0 3.73-.438 4.97-1.312 1.238-.874 1.858-2.037 1.858-3.488 0-.595-.1-1.116-.305-1.563a2.677 2.677 0 0 0-.97-1.116 9.884 9.884 0 0 0-1.334-.752c-.443-.205-1.017-.372-1.72-.502a29.331 29.331 0 0 0-1.75-.28c-.46-.055-1.072-.12-1.83-.195-.76-.073-1.287-.13-1.583-.166-2.924.967-4.386 2.493-4.386 4.576zm1.39-20.538c0 1.786.49 3.256 1.47 4.41.98 1.153 2.323 1.73 4.025 1.73 1.63 0 2.943-.568 3.942-1.703 1-1.136 1.5-2.596 1.5-4.382v-1.842c0-1.71-.5-3.143-1.5-4.297s-2.332-1.73-3.997-1.73c-1.703 0-3.035.566-3.997 1.7-.963 1.136-1.444 2.578-1.444 4.326v1.786zm19.597 21.04c0-2.716 1.498-4.743 4.496-6.083-1.887-.708-2.83-1.954-2.83-3.74 0-1.712.924-3.088 2.775-4.13-2.11-1.71-3.165-4.055-3.165-7.032v-1.842c0-2.716.907-4.93 2.72-6.64 1.814-1.712 4.202-2.568 7.162-2.568 2.517 0 4.682.725 6.496 2.177 1.11-2.42 2.37-3.628 3.776-3.628.592 0 1.073.177 1.443.53.37.354.555.754.555 1.2 0 .558-.315.986-.944 1.284-1.258.335-2.257 1.117-2.997 2.345 1.147 1.376 1.72 3.144 1.72 5.3v1.843c0 2.68-.943 4.893-2.83 6.64-1.888 1.75-4.294 2.624-7.218 2.624-1.517 0-2.886-.28-4.108-.837-.925.558-1.388 1.19-1.388 1.898 0 .707.425 1.256 1.276 1.646.85.39 1.906.632 3.165.725 1.26.093 2.628.27 4.11.53 1.48.26 2.85.595 4.107 1.004a6.69 6.69 0 0 1 3.165 2.176c.85 1.042 1.276 2.363 1.276 3.962 0 2.642-1.045 4.66-3.136 6.056-2.09 1.395-4.802 2.093-8.133 2.093-3.333 0-6.08-.68-8.246-2.037-2.165-1.36-3.247-3.19-3.247-5.498zm4.385-.502c0 1.45.64 2.614 1.916 3.488 1.277.874 2.988 1.312 5.135 1.312 2.073 0 3.73-.438 4.97-1.312 1.24-.874 1.86-2.037 1.86-3.488 0-.595-.103-1.116-.307-1.563a2.67 2.67 0 0 0-.97-1.116 9.824 9.824 0 0 0-1.334-.752c-.444-.205-1.018-.372-1.72-.502a29.59 29.59 0 0 0-1.75-.28 96.543 96.543 0 0 0-1.832-.195 70.362 70.362 0 0 1-1.582-.166c-2.924.967-4.386 2.493-4.386 4.576zm1.388-20.538c0 1.786.49 3.256 1.47 4.41.982 1.153 2.324 1.73 4.026 1.73 1.63 0 2.943-.568 3.942-1.703 1-1.136 1.5-2.596 1.5-4.382v-1.842c0-1.71-.5-3.143-1.5-4.297s-2.332-1.73-3.997-1.73c-1.702 0-3.034.566-3.996 1.7-.963 1.136-1.444 2.578-1.444 4.326v1.786zm20.708 5.414v-5.58c0-3.2.935-5.805 2.804-7.814 1.87-2.01 4.617-3.014 8.244-3.014 2.295 0 4.228.41 5.8 1.228 1.574.818 2.36 1.693 2.36 2.623 0 .52-.193 1.03-.582 1.534-.39.502-.842.753-1.36.753-.148 0-.787-.326-1.916-.977-1.128-.65-2.452-.976-3.97-.976-2.22 0-3.904.576-5.05 1.73-1.148 1.153-1.722 2.79-1.722 4.91v5.582c0 4.427 2.276 6.64 6.828 6.64 1.555 0 2.906-.334 4.053-1.003 1.148-.67 1.814-1.005 2-1.005.59 0 1.08.242 1.47.725.39.484.583.986.583 1.507 0 .93-.814 1.823-2.443 2.68-1.628.855-3.627 1.283-5.996 1.283-3.663 0-6.43-.995-8.298-2.986-1.87-1.99-2.804-4.604-2.804-7.84zm22.484 6.585c0-.482.158-.957.472-1.422.315-.465.694-.697 1.138-.697.296 0 .722.224 1.277.67.554.447 1.35.884 2.386 1.312 1.037.428 2.258.642 3.665.642 1.85 0 3.193-.335 4.025-1.005.833-.67 1.25-1.508 1.25-2.512 0-1.228-.463-2.205-1.388-2.93-.926-.726-2.054-1.275-3.387-1.647a79.176 79.176 0 0 1-3.997-1.227 7.747 7.747 0 0 1-3.387-2.232c-.925-1.04-1.387-2.417-1.387-4.13 0-2.12.748-3.952 2.247-5.496 1.5-1.544 3.784-2.316 6.856-2.316 1.962 0 3.757.307 5.385.92 1.63.615 2.443 1.312 2.443 2.094 0 .446-.175.948-.526 1.507-.352.557-.787.836-1.305.836-.15 0-.86-.27-2.138-.81-1.277-.54-2.545-.81-3.803-.81-1.704 0-2.97.4-3.804 1.2-.833.8-1.25 1.703-1.25 2.708 0 1.042.463 1.86 1.39 2.455.924.595 2.062 1.06 3.413 1.395 1.35.334 2.692.744 4.024 1.227 1.332.484 2.46 1.312 3.386 2.484.926 1.172 1.388 2.688 1.388 4.548 0 2.307-.814 4.13-2.442 5.47-1.63 1.34-3.905 2.01-6.83 2.01-2.516 0-4.662-.457-6.44-1.37-1.775-.91-2.664-1.868-2.664-2.873zm21.763 0c0-.482.157-.957.472-1.422.314-.465.694-.697 1.138-.697.296 0 .722.224 1.277.67.555.447 1.35.884 2.387 1.312 1.035.428 2.257.642 3.663.642 1.85 0 3.192-.335 4.025-1.005.833-.67 1.25-1.508 1.25-2.512 0-1.228-.463-2.205-1.39-2.93-.924-.726-2.053-1.275-3.385-1.647a78.862 78.862 0 0 1-3.997-1.227 7.73 7.73 0 0 1-3.387-2.232c-.926-1.04-1.39-2.417-1.39-4.13 0-2.12.75-3.952 2.25-5.496 1.498-1.544 3.784-2.316 6.856-2.316 1.96 0 3.756.307 5.385.92 1.63.615 2.444 1.312 2.444 2.094 0 .446-.176.948-.528 1.507-.35.557-.786.836-1.304.836-.148 0-.86-.27-2.138-.81-1.277-.54-2.544-.81-3.803-.81-1.7 0-2.97.4-3.802 1.2-.832.8-1.25 1.703-1.25 2.708 0 1.042.464 1.86 1.39 2.455.925.595 2.063 1.06 3.414 1.395 1.35.334 2.692.744 4.024 1.227 1.333.484 2.462 1.312 3.387 2.484.925 1.172 1.388 2.688 1.388 4.548 0 2.307-.813 4.13-2.442 5.47-1.628 1.34-3.904 2.01-6.828 2.01-2.517 0-4.664-.457-6.44-1.37-1.777-.91-2.665-1.868-2.665-2.873z"/></g></svg>