<?xml version="1.0" encoding="UTF-8" standalone="no"?>
<svg width="239px" height="76px" viewBox="0 0 239 76" version="1.1" xmlns="http://www.w3.org/2000/svg" xmlns:xlink="http://www.w3.org/1999/xlink" xmlns:sketch="http://www.bohemiancoding.com/sketch/ns">
    <!-- Generator: Sketch 3.3.3 (12081) - http://www.bohemiancoding.com/sketch -->
    <title>Logo</title>
    <desc>Created with Sketch.</desc>
    <defs></defs>
    <g id="Welcome" stroke="none" stroke-width="1" fill="none" fill-rule="evenodd" sketch:type="MSPage">
        <g id="Desktop-HD" sketch:type="MSArtboardGroup" transform="translate(-213.000000, -26.000000)">
            <g id="Logo" sketch:type="MSLayerGroup" transform="translate(205.000000, 25.000000)">
                <g id="Group" transform="translate(0.267596, 1.000000)" sketch:type="MSShapeGroup">
                    <polygon id="Polygon-1" fill="#1EA3B9" points="42.4205698 31.3069946 47.5396038 34.5322501 47.5396038 40.9827609 42.4205698 44.2080164 37.3015357 40.9827609 37.3015357 34.5322501 "></polygon>
                    <path d="M61.1624011,37.8542162 C61.1624011,17.0255171 52.9474657,-0.0528591976 42.3258021,-0.0528591976 C31.7041384,-0.0528591976 23.489203,17.0255171 23.489203,37.8542162 C23.489203,58.6829153 31.7041384,75.7612916 42.3258021,75.7612916 C52.9474657,75.7612916 61.1624011,58.6829153 61.1624011,37.8542162 Z M26.5320383,37.8542162 C26.5320383,18.422339 33.5815714,2.86306968 42.3258021,2.86306968 C48.5919395,2.86306968 53.5413733,10.8530519 55.8434282,22.5324527 C56.7538307,27.1513499 57.2501844,32.3472704 57.2501844,37.8542162 C57.2501844,57.2860934 51.0700327,70.415422 42.3258021,70.415422 C33.5815714,70.415422 26.5320383,57.2860934 26.5320383,37.8542162 Z" id="Oval-5" fill="#A1D83B" transform="translate(42.325802, 37.854216) rotate(-60.000000) translate(-42.325802, -37.854216) "></path>
                    <path d="M61.1624011,37.8542162 C61.1624011,17.0255171 52.9474657,-0.0528591976 42.3258021,-0.0528591976 C31.7041384,-0.0528591976 23.489203,17.0255171 23.489203,37.8542162 C23.489203,58.6829153 31.7041384,75.7612916 42.3258021,75.7612916 C52.9474657,75.7612916 61.1624011,58.6829153 61.1624011,37.8542162 Z M26.5320383,37.8542162 C26.5320383,18.422339 33.5815714,2.86306968 42.3258021,2.86306968 C48.5919395,2.86306968 53.5413733,10.8530519 55.8434282,22.5324527 C56.7538307,27.1513499 57.2501844,32.3472704 57.2501844,37.8542162 C57.2501844,57.2860934 51.0700327,70.415422 42.3258021,70.415422 C33.5815714,70.415422 26.5320383,57.2860934 26.5320383,37.8542162 Z" id="Oval-4" fill="#FF8854" transform="translate(42.325802, 37.854216) rotate(-300.000000) translate(-42.325802, -37.854216) "></path>
                    <path d="M61.2199268,37.9070754 C61.2199268,17.0783763 52.9953223,0 42.3611568,0 C31.7269912,0 23.5023868,17.0783763 23.5023868,37.9070754 C23.5023868,58.7357745 31.7269912,75.8141508 42.3611568,75.8141508 C52.9953223,75.8141508 61.2199268,58.7357745 61.2199268,37.9070754 Z M26.5488034,39.1220458 C26.5488034,19.6901686 33.606634,4.13089924 42.3611568,4.13089924 C48.6346695,4.13089924 53.5899289,12.1208815 55.8946934,23.8002822 C56.0049142,24.3588263 55.8678172,23.1639056 56.1625457,25.175926 C56.1818441,25.3076705 56.202994,25.4531645 56.226186,25.6138008 C56.603569,28.2276975 56.7437165,29.0699657 56.9181365,30.889033 C57.1710184,33.5263986 57.3031053,36.2828866 57.3031053,39.1220458 C57.3031053,58.553923 51.1156795,71.6832516 42.3611568,71.6832516 C33.606634,71.6832516 26.5488034,58.553923 26.5488034,39.1220458 Z" id="Oval-1" fill="#FFDC4F"></path>
                    <path d="M55.9129362,24.2605283 L60.7285388,27.7479792 L61.2199268,32.9791556 L56.699157,29.4917047 L55.9129362,24.2605283 Z" id="Path" fill="#A1D83B"></path>
                </g>
                <path d="M120.268698,21.6024955 C120.955956,21.6024955 121.536845,21.8397598 122.011381,22.3142956 C122.485917,22.7888314 122.723181,23.3533568 122.723181,24.007889 L122.723181,53.5598659 C122.723181,54.214398 122.485917,54.7789235 122.011381,55.2534592 C121.536845,55.727995 120.955956,55.9652593 120.268698,55.9652593 C119.614166,55.9652593 119.041459,55.727995 118.55056,55.2534592 C118.059661,54.7789235 117.814215,54.214398 117.814215,53.5598659 L117.814215,41.1892709 L103.578212,41.1892709 L103.578212,53.5598659 C103.578212,54.214398 103.332767,54.7789235 102.841868,55.2534592 C102.350968,55.727995 101.778261,55.9652593 101.123729,55.9652593 C100.469197,55.9652593 99.8964902,55.727995 99.4055912,55.2534592 C98.9146921,54.7789235 98.6692462,54.214398 98.6692462,53.5598659 L98.6692462,24.007889 C98.6692462,23.3533568 98.9146921,22.7888314 99.4055912,22.3142956 C99.8964902,21.8397598 100.469197,21.6024955 101.123729,21.6024955 C101.778261,21.6024955 102.350968,21.8397598 102.841868,22.3142956 C103.332767,22.7888314 103.578212,23.3533568 103.578212,24.007889 L103.578212,36.3784839 L117.814215,36.3784839 L117.814215,24.007889 C117.814215,23.3533568 118.059661,22.7888314 118.55056,22.3142956 C119.041459,21.8397598 119.614166,21.6024955 120.268698,21.6024955 L120.268698,21.6024955 Z M129.546644,55.9652593 C128.892112,55.9652593 128.319405,55.7198135 127.828506,55.2289144 C127.337607,54.7380153 127.092161,54.1653083 127.092161,53.5107762 L127.092161,35.5930493 C127.092161,34.9057906 127.337607,34.3167206 127.828506,33.8258215 C128.319405,33.3349224 128.892112,33.0894765 129.546644,33.0894765 C130.233903,33.0894765 130.822973,33.3349224 131.313872,33.8258215 C131.804771,34.3167206 132.050217,34.9057906 132.050217,35.5930493 L132.050217,53.5107762 C132.050217,54.1653083 131.804771,54.7380153 131.313872,55.2289144 C130.822973,55.7198135 130.233903,55.9652593 129.546644,55.9652593 L129.546644,55.9652593 Z M132.050217,25.1860409 C132.050217,25.8732996 131.804771,26.4623696 131.313872,26.9532687 C130.822973,27.4441678 130.233903,27.6896137 129.546644,27.6896137 C128.892112,27.6896137 128.319405,27.4441678 127.828506,26.9532687 C127.337607,26.4623696 127.092161,25.8732996 127.092161,25.1860409 C127.092161,24.5315087 127.337607,23.9588017 127.828506,23.4679027 C128.319405,22.9770036 128.892112,22.7315577 129.546644,22.7315577 C130.233903,22.7315577 130.822973,22.9770036 131.313872,23.4679027 C131.804771,23.9588017 132.050217,24.5315087 132.050217,25.1860409 L132.050217,25.1860409 Z M157.920469,56.456156 C157.920469,57.8306734 157.691386,59.1724441 157.233214,60.4815083 C156.775041,61.7905725 156.120519,62.9850757 155.269627,64.0650537 C154.255102,65.1450317 153.027873,66.0531813 151.587903,66.78953 C150.147932,67.5258786 148.69162,67.8940474 147.218923,67.8940474 L146.580757,67.8940474 C144.944427,67.7631409 143.414481,67.2640677 141.990874,66.3968127 C140.567266,65.5295576 139.380945,64.3759621 138.431873,62.9359914 L138.480963,62.9359914 C138.21915,62.4123657 138.088245,61.9705632 138.088245,61.6105705 C138.088245,61.1851247 138.186424,60.7842298 138.382783,60.4078738 C138.579143,60.0315178 138.857315,59.7288013 139.217308,59.499715 C139.5773,59.2379022 140.035466,59.1069977 140.591818,59.1069977 C141.017264,59.1069977 141.401796,59.2051761 141.745425,59.4015357 C142.089055,59.5978954 142.391771,59.8597043 142.653584,60.1869703 C143.144483,60.9724089 143.766279,61.6105681 144.518991,62.1014672 C145.271703,62.5923663 146.05713,62.8705382 146.875295,62.9359914 L147.218923,62.9359914 C148.887979,62.9359914 150.311565,62.2651061 151.489723,60.9233153 C152.504248,59.6469777 153.011503,58.1579394 153.011503,56.456156 L153.011503,54.2471211 C151.996978,54.7707468 151.015195,55.1880048 150.066123,55.4989075 C149.117051,55.8098103 148.184357,55.9652593 147.268012,55.9652593 C145.795315,55.9652593 144.412637,55.6625428 143.119936,55.0571006 C141.827235,54.4516584 140.698184,53.6335055 139.732749,52.6026174 C138.767314,51.5717294 138.006432,50.3608631 137.45008,48.9699824 C136.893727,47.5791017 136.615555,46.098245 136.615555,44.5273679 C136.615555,42.9564909 136.893727,41.4756342 137.45008,40.0847535 C138.006432,38.6938727 138.767314,37.4830065 139.732749,36.4521184 C140.698184,35.4212304 141.827235,34.6030775 143.119936,33.9976353 C144.412637,33.3921931 145.795315,33.0894765 147.268012,33.0894765 C149.198882,33.0894765 151.129723,33.6949097 153.060592,34.9057941 C153.322405,34.3821684 153.674211,33.9485474 154.11602,33.604918 C154.557829,33.2612886 155.007813,33.0894765 155.465986,33.0894765 C156.120518,33.0894765 156.693225,33.3349224 157.184124,33.8258215 C157.675023,34.3167206 157.920469,34.8894276 157.920469,35.5439597 L157.920469,56.456156 Z M147.268012,51.0072034 C148.053451,51.0072034 148.79797,50.8435728 149.501592,50.5163068 C150.205214,50.1890407 150.810647,49.7308751 151.317909,49.1417962 C151.825172,48.5527173 152.234248,47.8654689 152.545151,47.0800304 C152.856054,46.2945919 153.011503,45.4437129 153.011503,44.5273679 C153.011503,43.6437496 152.856054,42.8092337 152.545151,42.0237951 C152.234248,41.2383566 151.825172,40.5511082 151.317909,39.9620293 C150.810647,39.3729504 150.205214,38.9066033 149.501592,38.5629739 C148.79797,38.2193446 148.053451,38.0475325 147.268012,38.0475325 C146.482574,38.0475325 145.738055,38.2193446 145.034433,38.5629739 C144.330811,38.9066033 143.725377,39.3729504 143.218115,39.9620293 C142.710853,40.5511082 142.309958,41.2383566 142.015418,42.0237951 C141.720879,42.8092337 141.573611,43.6437496 141.573611,44.5273679 C141.573611,45.4437129 141.720879,46.2945919 142.015418,47.0800304 C142.309958,47.8654689 142.710853,48.5527173 143.218115,49.1417962 C143.725377,49.7308751 144.330811,50.1890407 145.034433,50.5163068 C145.738055,50.8435728 146.482574,51.0072034 147.268012,51.0072034 L147.268012,51.0072034 Z M183.299825,56.456156 C183.299825,57.8306734 183.070742,59.1724441 182.612569,60.4815083 C182.154397,61.7905725 181.499875,62.9850757 180.648983,64.0650537 C179.634458,65.1450317 178.407229,66.0531813 176.967258,66.78953 C175.527288,67.5258786 174.070975,67.8940474 172.598278,67.8940474 L171.960113,67.8940474 C170.323782,67.7631409 168.793836,67.2640677 167.370229,66.3968127 C165.946622,65.5295576 164.7603,64.3759621 163.811229,62.9359914 L163.860318,62.9359914 C163.598505,62.4123657 163.467601,61.9705632 163.467601,61.6105705 C163.467601,61.1851247 163.565779,60.7842298 163.762139,60.4078738 C163.958499,60.0315178 164.23667,59.7288013 164.596663,59.499715 C164.956656,59.2379022 165.414821,59.1069977 165.971174,59.1069977 C166.39662,59.1069977 166.781151,59.2051761 167.124781,59.4015357 C167.46841,59.5978954 167.771127,59.8597043 168.03294,60.1869703 C168.523839,60.9724089 169.145635,61.6105681 169.898347,62.1014672 C170.651059,62.5923663 171.436485,62.8705382 172.254651,62.9359914 L172.598278,62.9359914 C174.267335,62.9359914 175.690921,62.2651061 176.869079,60.9233153 C177.883604,59.6469777 178.390858,58.1579394 178.390858,56.456156 L178.390858,54.2471211 C177.376334,54.7707468 176.39455,55.1880048 175.445479,55.4989075 C174.496407,55.8098103 173.563713,55.9652593 172.647368,55.9652593 C171.174671,55.9652593 169.791992,55.6625428 168.499291,55.0571006 C167.20659,54.4516584 166.077539,53.6335055 165.112105,52.6026174 C164.14667,51.5717294 163.385788,50.3608631 162.829435,48.9699824 C162.273083,47.5791017 161.994911,46.098245 161.994911,44.5273679 C161.994911,42.9564909 162.273083,41.4756342 162.829435,40.0847535 C163.385788,38.6938727 164.14667,37.4830065 165.112105,36.4521184 C166.077539,35.4212304 167.20659,34.6030775 168.499291,33.9976353 C169.791992,33.3921931 171.174671,33.0894765 172.647368,33.0894765 C174.578238,33.0894765 176.509078,33.6949097 178.439948,34.9057941 C178.701761,34.3821684 179.053567,33.9485474 179.495376,33.604918 C179.937185,33.2612886 180.387169,33.0894765 180.845341,33.0894765 C181.499874,33.0894765 182.072581,33.3349224 182.56348,33.8258215 C183.054379,34.3167206 183.299825,34.8894276 183.299825,35.5439597 L183.299825,56.456156 Z M172.647368,51.0072034 C173.432806,51.0072034 174.177325,50.8435728 174.880947,50.5163068 C175.584569,50.1890407 176.190003,49.7308751 176.697265,49.1417962 C177.204527,48.5527173 177.613604,47.8654689 177.924507,47.0800304 C178.235409,46.2945919 178.390858,45.4437129 178.390858,44.5273679 C178.390858,43.6437496 178.235409,42.8092337 177.924507,42.0237951 C177.613604,41.2383566 177.204527,40.5511082 176.697265,39.9620293 C176.190003,39.3729504 175.584569,38.9066033 174.880947,38.5629739 C174.177325,38.2193446 173.432806,38.0475325 172.647368,38.0475325 C171.861929,38.0475325 171.11741,38.2193446 170.413788,38.5629739 C169.710166,38.9066033 169.104733,39.3729504 168.597471,39.9620293 C168.090208,40.5511082 167.689313,41.2383566 167.394774,42.0237951 C167.100234,42.8092337 166.952967,43.6437496 166.952967,44.5273679 C166.952967,45.4437129 167.100234,46.2945919 167.394774,47.0800304 C167.689313,47.8654689 168.090208,48.5527173 168.597471,49.1417962 C169.104733,49.7308751 169.710166,50.1890407 170.413788,50.5163068 C171.11741,50.8435728 171.861929,51.0072034 172.647368,51.0072034 L172.647368,51.0072034 Z M198.075813,55.9652593 C196.603116,55.9652593 195.220438,55.6707243 193.927737,55.0816454 C192.635036,54.4925665 191.505985,53.6825952 190.54055,52.6517071 C189.575115,51.620819 188.814233,50.4099528 188.257881,49.0190721 C187.701528,47.6281913 187.423356,46.1473347 187.423356,44.5764576 C187.423356,43.0055805 187.701528,41.5247239 188.257881,40.1338431 C188.814233,38.7429624 189.575115,37.5239146 190.54055,36.4766633 C191.505985,35.4294119 192.635036,34.6030775 193.927737,33.9976353 C195.220438,33.3921931 196.603116,33.0894765 198.075813,33.0894765 C198.861252,33.0894765 199.622134,33.1794734 200.358482,33.3594697 C201.094831,33.539466 201.806624,33.7930934 202.493883,34.1203595 C203.410228,34.5785319 203.868393,35.3148695 203.868393,36.3293943 C203.868393,36.6566603 203.786578,37.0166476 203.622945,37.4093669 C203.426585,37.8675393 203.123869,38.2193451 202.714786,38.4647946 C202.305704,38.7102441 201.872083,38.8329671 201.41391,38.8329671 C201.119371,38.8329671 200.759383,38.7511518 200.333938,38.5875188 C199.613952,38.2275261 198.861252,38.0475325 198.075813,38.0475325 C197.290375,38.0475325 196.554037,38.2193446 195.866778,38.5629739 C195.17952,38.9066033 194.582268,39.3729504 194.075006,39.9620293 C193.567743,40.5511082 193.158667,41.2383566 192.847764,42.0237951 C192.536861,42.8092337 192.381412,43.6601127 192.381412,44.5764576 C192.381412,45.4600759 192.536861,46.2945919 192.847764,47.0800304 C193.158667,47.8654689 193.567743,48.5527173 194.075006,49.1417962 C194.582268,49.7308751 195.17952,50.1890407 195.866778,50.5163068 C196.554037,50.8435728 197.290375,51.0072034 198.075813,51.0072034 C198.926705,51.0072034 199.679405,50.8435728 200.333938,50.5163068 C200.497571,50.418127 200.669383,50.3526747 200.849379,50.3199481 C201.029375,50.2872215 201.201187,50.2708585 201.36482,50.2708585 C201.822993,50.2708585 202.264796,50.3935814 202.690241,50.6390309 C203.115687,50.8844805 203.426585,51.2362862 203.622945,51.6944587 C203.688398,51.8580917 203.745669,52.0217223 203.794759,52.1853553 C203.843849,52.3489883 203.868393,52.528982 203.868393,52.7253416 C203.868393,53.1835141 203.753852,53.6253166 203.524766,54.0507625 C203.295679,54.4762084 202.952055,54.7871065 202.493883,54.9834661 C201.086639,55.6379982 199.613964,55.9652593 198.075813,55.9652593 L198.075813,55.9652593 Z M220.215251,41.9256158 C221.164322,42.3837883 221.941568,42.858317 222.54701,43.349216 C223.152452,43.8401151 223.626981,44.3310068 223.97061,44.8219059 C224.314239,45.312805 224.559685,45.7955152 224.706955,46.270051 C224.854225,46.7445867 224.944222,47.1782078 224.976948,47.570927 L224.976948,48.1109133 C224.976948,49.0272583 224.821499,49.9190449 224.510596,50.7862999 C224.199694,51.653555 223.716983,52.4308002 223.062451,53.1180589 C222.178833,54.0344039 221.139779,54.7380153 219.945258,55.2289144 C218.750737,55.7198135 217.433511,55.9652593 215.99354,55.9652593 C214.389936,55.9652593 212.917261,55.5970906 211.57547,54.8607419 C210.233679,54.1243933 209.202807,53.1344283 208.482822,51.8908173 C208.253735,51.3671917 208.139194,50.9417522 208.139194,50.6144861 C208.139194,50.1890402 208.237372,49.7881453 208.433732,49.4117894 C208.630092,49.0354334 208.94099,48.7327169 209.366435,48.5036306 C209.824608,48.2745444 210.233684,48.160003 210.593677,48.160003 C210.986396,48.160003 211.37911,48.2663628 211.771829,48.4790858 C212.164548,48.6918087 212.475446,49.0108883 212.704533,49.4363342 C213.064525,50.0254131 213.563598,50.4344895 214.201767,50.6635758 C214.839936,50.892662 215.437188,51.0072034 215.99354,51.0072034 C216.746252,51.0072034 217.417137,50.9090251 218.006216,50.7126654 C218.595295,50.5163058 219.069824,50.2054077 219.429816,49.7799618 L219.380727,49.7799618 C219.838899,49.3217894 220.067982,48.6999932 220.067982,47.9145547 C219.969802,47.718195 219.765264,47.5054753 219.454361,47.276389 C219.143458,47.0473028 218.767108,46.8100385 218.325299,46.5645889 C217.88349,46.3191394 217.417143,46.0900566 216.926244,45.8773337 C216.435344,45.6646107 215.960816,45.5091617 215.502643,45.4109819 C215.502643,45.4109819 215.469917,45.3946188 215.404464,45.3618922 C214.684479,45.1655326 213.948141,44.8955421 213.195429,44.5519128 C212.442717,44.2082834 211.755469,43.7582993 211.133663,43.201947 C210.511858,42.6455948 210.004603,41.9828909 209.611884,41.2138157 C209.219165,40.4447405 209.022808,39.5365908 209.022808,38.4893394 C209.022808,37.5729945 209.227346,36.7221155 209.636429,35.936677 C210.045511,35.1512384 210.610037,34.46399 211.330022,33.8749111 C212.050007,33.2858322 212.909068,32.8276666 213.907229,32.5004006 C214.905391,32.1731345 215.977171,32.009504 217.122602,32.009504 C217.875314,32.009504 218.660741,32.1322269 219.478906,32.3776764 C220.297071,32.623126 221.033409,32.9585686 221.687941,33.3840145 C222.047933,33.6131008 222.334287,33.9158173 222.54701,34.2921733 C222.759733,34.6685292 222.866093,35.0530611 222.866093,35.4457804 C222.866093,35.7075932 222.825185,35.936676 222.743369,36.1330356 C222.661552,36.3293953 222.555192,36.542115 222.424286,36.7712012 L222.473375,36.7712012 C222.015203,37.5239132 221.327955,37.9002635 220.41161,37.9002635 C219.986164,37.9002635 219.511635,37.769359 218.988009,37.5075462 L219.086189,37.5566358 C218.791649,37.3930028 218.464388,37.2620984 218.104395,37.1639185 C217.744403,37.0657387 217.417142,37.0166496 217.122602,37.0166496 C216.56625,37.0166496 216.091721,37.0821018 215.699002,37.2130082 C215.306283,37.3439146 214.979022,37.4911821 214.717209,37.6548152 C214.455396,37.8184482 214.267221,37.9820788 214.152678,38.1457118 C214.038134,38.3093448 213.980864,38.4238862 213.980864,38.4893394 C213.980864,38.6202459 213.997227,38.7675134 214.029953,38.9311464 C214.06268,39.0947794 214.160858,39.2747731 214.324491,39.4711327 C214.488124,39.6674923 214.749933,39.8720305 215.109926,40.0847535 C215.469919,40.2974764 215.977173,40.5020146 216.631706,40.6983743 C216.893518,40.7638275 217.368047,40.8947319 218.055306,41.0910916 C218.742564,41.2874512 219.462539,41.5656232 220.215251,41.9256158 L220.215251,41.9256158 Z M241.323806,41.9256158 C242.272877,42.3837883 243.050123,42.858317 243.655565,43.349216 C244.261007,43.8401151 244.735536,44.3310068 245.079165,44.8219059 C245.422794,45.312805 245.66824,45.7955152 245.81551,46.270051 C245.96278,46.7445867 246.052777,47.1782078 246.085503,47.570927 L246.085503,48.1109133 C246.085503,49.0272583 245.930054,49.9190449 245.619151,50.7862999 C245.308249,51.653555 244.825538,52.4308002 244.171006,53.1180589 C243.287388,54.0344039 242.248334,54.7380153 241.053813,55.2289144 C239.859292,55.7198135 238.542066,55.9652593 237.102095,55.9652593 C235.498491,55.9652593 234.025816,55.5970906 232.684025,54.8607419 C231.342234,54.1243933 230.311362,53.1344283 229.591377,51.8908173 C229.36229,51.3671917 229.247749,50.9417522 229.247749,50.6144861 C229.247749,50.1890402 229.345927,49.7881453 229.542287,49.4117894 C229.738646,49.0354334 230.049545,48.7327169 230.47499,48.5036306 C230.933163,48.2745444 231.342239,48.160003 231.702232,48.160003 C232.094951,48.160003 232.487665,48.2663628 232.880384,48.4790858 C233.273103,48.6918087 233.584001,49.0108883 233.813087,49.4363342 C234.17308,50.0254131 234.672153,50.4344895 235.310322,50.6635758 C235.948491,50.892662 236.545743,51.0072034 237.102095,51.0072034 C237.854807,51.0072034 238.525692,50.9090251 239.114771,50.7126654 C239.70385,50.5163058 240.178379,50.2054077 240.538371,49.7799618 L240.489282,49.7799618 C240.947454,49.3217894 241.176537,48.6999932 241.176537,47.9145547 C241.078357,47.718195 240.873819,47.5054753 240.562916,47.276389 C240.252013,47.0473028 239.875663,46.8100385 239.433854,46.5645889 C238.992045,46.3191394 238.525698,46.0900566 238.034798,45.8773337 C237.543899,45.6646107 237.069371,45.5091617 236.611198,45.4109819 C236.611198,45.4109819 236.578472,45.3946188 236.513019,45.3618922 C235.793034,45.1655326 235.056696,44.8955421 234.303984,44.5519128 C233.551272,44.2082834 232.864024,43.7582993 232.242218,43.201947 C231.620413,42.6455948 231.113158,41.9828909 230.720439,41.2138157 C230.327719,40.4447405 230.131363,39.5365908 230.131363,38.4893394 C230.131363,37.5729945 230.335901,36.7221155 230.744984,35.936677 C231.154066,35.1512384 231.718592,34.46399 232.438577,33.8749111 C233.158562,33.2858322 234.017623,32.8276666 235.015784,32.5004006 C236.013946,32.1731345 237.085726,32.009504 238.231157,32.009504 C238.983869,32.009504 239.769296,32.1322269 240.587461,32.3776764 C241.405626,32.623126 242.141964,32.9585686 242.796496,33.3840145 C243.156488,33.6131008 243.442842,33.9158173 243.655565,34.2921733 C243.868288,34.6685292 243.974648,35.0530611 243.974648,35.4457804 C243.974648,35.7075932 243.93374,35.936676 243.851924,36.1330356 C243.770107,36.3293953 243.663747,36.542115 243.532841,36.7712012 L243.58193,36.7712012 C243.123758,37.5239132 242.436509,37.9002635 241.520165,37.9002635 C241.094719,37.9002635 240.62019,37.769359 240.096564,37.5075462 L240.194744,37.5566358 C239.900204,37.3930028 239.572943,37.2620984 239.21295,37.1639185 C238.852958,37.0657387 238.525697,37.0166496 238.231157,37.0166496 C237.674805,37.0166496 237.200276,37.0821018 236.807557,37.2130082 C236.414838,37.3439146 236.087577,37.4911821 235.825764,37.6548152 C235.563951,37.8184482 235.375776,37.9820788 235.261233,38.1457118 C235.146689,38.3093448 235.089419,38.4238862 235.089419,38.4893394 C235.089419,38.6202459 235.105782,38.7675134 235.138508,38.9311464 C235.171235,39.0947794 235.269413,39.2747731 235.433046,39.4711327 C235.596679,39.6674923 235.858488,39.8720305 236.218481,40.0847535 C236.578474,40.2974764 237.085728,40.5020146 237.740261,40.6983743 C238.002073,40.7638275 238.476602,40.8947319 239.163861,41.0910916 C239.851119,41.2874512 240.571094,41.5656232 241.323806,41.9256158 L241.323806,41.9256158 Z" id="Higgcss" fill="#1EA3B9" sketch:type="MSShapeGroup"></path>
            </g>
        </g>
    </g>
</svg>