<svg width="239" height="76" viewBox="0 0 239 76" xmlns="http://www.w3.org/2000/svg"><title>Logo</title><g fill="none" fill-rule="evenodd"><path fill="#1EA3B9" d="M34.688 31.307l5.12 3.225v6.45l-5.12 3.226-5.12-3.225v-6.45"/><path d="M44.012 21.54C25.974 11.128 7.076 9.703 1.765 18.9c-5.31 9.2 5.372 24.853 23.41 35.267 18.038 10.415 36.936 11.84 42.247 2.64 5.31-9.198-5.372-24.85-23.41-35.266zM26.697 51.533C9.867 41.816-.083 27.932 4.29 20.36c3.133-5.428 12.527-5.72 23.793-1.873 4.455 1.52 9.203 3.69 13.973 6.442 16.828 9.715 25.108 21.632 20.736 29.205-4.372 7.573-19.267 7.113-36.095-2.603z" fill="#A1D83B"/><path d="M44.012 54.167C62.05 43.753 72.732 28.1 67.422 18.9c-5.31-9.198-24.21-7.773-42.247 2.64C7.137 31.957-3.545 47.61 1.765 56.81c5.31 9.198 24.21 7.774 42.247-2.64zm-17.315-29.99c16.828-9.717 33.828-11.39 38.2-3.818 3.133 5.425-1.312 13.707-10.276 21.54-3.544 3.098-7.795 6.126-12.564 8.88-16.83 9.715-31.29 10.928-35.66 3.355-4.374-7.573 3.472-20.243 20.3-29.96z" fill="#FF8854"/><path d="M53.488 37.907C53.488 17.077 45.263 0 34.628 0 23.996 0 15.77 17.078 15.77 37.907c0 20.83 8.225 37.907 18.86 37.907 10.633 0 18.858-17.078 18.858-37.907zm-34.672 1.215c0-19.432 7.058-34.99 15.813-34.99 6.272 0 11.228 7.99 13.532 19.668.11.56-.027-.636.268 1.376l.064.438c.377 2.614.517 3.456.692 5.275.253 2.636.385 5.393.385 8.232 0 19.432-6.187 32.56-14.94 32.56-8.756 0-15.814-13.128-15.814-32.56z" fill="#FFDC4F"/><path d="M48.18 24.26l4.816 3.488.492 5.23-4.52-3.486-.787-5.23z" fill="#A1D83B"/><path d="M112.27 20.602c.686 0 1.267.238 1.74.712.476.475.713 1.04.713 1.694V52.56c0 .654-.237 1.22-.712 1.693-.473.475-1.054.712-1.74.712-.656 0-1.23-.237-1.72-.712-.49-.474-.736-1.04-.736-1.693V40.19H95.578v12.37c0 .654-.245 1.22-.736 1.693-.49.475-1.064.712-1.718.712-.655 0-1.228-.237-1.718-.712-.49-.474-.737-1.04-.737-1.693V23.008c0-.655.245-1.22.736-1.694.49-.474 1.063-.712 1.718-.712.654 0 1.227.238 1.718.712.49.475.736 1.04.736 1.694v12.37h14.236v-12.37c0-.655.246-1.22.737-1.694.49-.474 1.064-.712 1.72-.712zm9.277 34.363c-.655 0-1.228-.245-1.718-.736-.492-.492-.738-1.065-.738-1.72V34.594c0-.687.246-1.276.737-1.767.49-.49 1.062-.737 1.717-.737.687 0 1.276.245 1.767.736.49.49.736 1.08.736 1.767V52.51c0 .655-.245 1.228-.736 1.72-.49.49-1.08.735-1.767.735zm2.503-30.78c0 .688-.245 1.277-.736 1.768-.49.49-1.08.737-1.767.737-.655 0-1.228-.246-1.718-.737-.492-.49-.738-1.08-.738-1.767 0-.654.246-1.227.737-1.718.49-.49 1.062-.736 1.717-.736.687 0 1.276.245 1.767.736.49.49.736 1.064.736 1.718zm25.87 31.27c0 1.376-.23 2.717-.687 4.027-.458 1.31-1.112 2.503-1.963 3.583-1.015 1.08-2.242 1.988-3.682 2.725-1.44.736-2.896 1.104-4.37 1.104h-.637c-1.636-.13-3.166-.63-4.59-1.497-1.423-.867-2.61-2.02-3.558-3.46h.05c-.263-.525-.394-.966-.394-1.326 0-.425.098-.826.295-1.202.196-.376.474-.68.834-.908.36-.262.818-.393 1.375-.393.425 0 .81.098 1.153.295.344.196.647.458.91.785.49.785 1.11 1.424 1.864 1.914.752.492 1.537.77 2.355.836h.344c1.668 0 3.092-.67 4.27-2.013 1.014-1.276 1.522-2.765 1.522-4.467v-2.21c-1.015.525-1.997.942-2.946 1.253-.95.31-1.882.465-2.798.465-1.473 0-2.855-.302-4.148-.908-1.293-.605-2.422-1.423-3.387-2.454-.966-1.03-1.727-2.242-2.283-3.633-.556-1.39-.834-2.872-.834-4.443 0-1.57.278-3.05.834-4.442.556-1.39 1.317-2.602 2.283-3.633.965-1.03 2.094-1.85 3.387-2.454 1.293-.606 2.675-.91 4.148-.91 1.93 0 3.862.607 5.793 1.818.262-.524.614-.957 1.056-1.3.442-.345.892-.517 1.35-.517.655 0 1.227.245 1.718.736.49.49.736 1.063.736 1.718v20.912zm-10.652-5.448c.785 0 1.53-.163 2.234-.49.703-.328 1.31-.786 1.816-1.375.507-.59.916-1.277 1.227-2.062.31-.785.467-1.636.467-2.553 0-.883-.156-1.718-.467-2.503-.31-.786-.72-1.473-1.227-2.062-.507-.59-1.113-1.055-1.816-1.4-.704-.343-1.45-.514-2.234-.514-.785 0-1.53.17-2.234.515-.703.344-1.31.81-1.816 1.4-.507.588-.908 1.275-1.203 2.06-.294.786-.44 1.62-.44 2.504 0 .917.146 1.768.44 2.553.295.785.696 1.473 1.203 2.062.507.59 1.113 1.047 1.816 1.374.704.328 1.45.49 2.234.49zm36.032 5.45c0 1.374-.23 2.715-.687 4.025-.46 1.31-1.113 2.503-1.964 3.583-1.016 1.08-2.243 1.988-3.683 2.725-1.44.736-2.896 1.104-4.37 1.104h-.637c-1.636-.13-3.166-.63-4.59-1.497-1.423-.867-2.61-2.02-3.56-3.46h.05c-.26-.525-.392-.966-.392-1.326 0-.425.098-.826.294-1.202.196-.376.475-.68.835-.908.36-.262.818-.393 1.374-.393.427 0 .81.098 1.155.295.343.196.646.458.908.785.49.785 1.113 1.424 1.865 1.914.753.492 1.538.77 2.357.836h.343c1.67 0 3.093-.67 4.27-2.013 1.016-1.276 1.523-2.765 1.523-4.467v-2.21c-1.014.525-1.995.942-2.945 1.253-.95.31-1.88.465-2.798.465-1.472 0-2.855-.302-4.148-.908-1.293-.605-2.422-1.423-3.388-2.454-.965-1.03-1.726-2.242-2.283-3.633-.557-1.39-.835-2.872-.835-4.443 0-1.57.278-3.05.834-4.442.556-1.39 1.317-2.602 2.282-3.633.966-1.03 2.095-1.85 3.387-2.454 1.292-.606 2.675-.91 4.147-.91 1.93 0 3.862.607 5.793 1.818.262-.524.614-.957 1.055-1.3.442-.345.892-.517 1.35-.517.655 0 1.228.245 1.718.736.49.49.737 1.063.737 1.718v20.912zm-10.653-5.45c.786 0 1.53-.163 2.234-.49.705-.328 1.31-.786 1.817-1.375.508-.59.917-1.277 1.228-2.062.31-.785.466-1.636.466-2.553 0-.883-.155-1.718-.465-2.503-.31-.786-.72-1.473-1.228-2.062-.507-.59-1.112-1.055-1.816-1.4-.703-.343-1.447-.514-2.233-.514-.785 0-1.53.17-2.233.515-.704.344-1.31.81-1.817 1.4-.507.588-.908 1.275-1.202 2.06-.295.786-.442 1.62-.442 2.504 0 .917.147 1.768.442 2.553.294.785.695 1.473 1.202 2.062.508.59 1.113 1.047 1.817 1.374.703.328 1.448.49 2.233.49zm25.43 4.958c-1.474 0-2.857-.294-4.15-.883-1.292-.59-2.42-1.4-3.386-2.43-.965-1.03-1.726-2.242-2.282-3.633-.556-1.392-.835-2.873-.835-4.444 0-1.57.28-3.05.835-4.442.556-1.39 1.317-2.61 2.283-3.657.966-1.048 2.095-1.874 3.388-2.48 1.292-.605 2.675-.908 4.148-.908.785 0 1.546.09 2.282.27.737.18 1.45.433 2.136.76.916.46 1.374 1.195 1.374 2.21 0 .327-.08.687-.245 1.08-.196.458-.5.81-.908 1.055-.41.245-.843.368-1.3.368-.296 0-.656-.082-1.08-.245-.72-.36-1.474-.54-2.26-.54-.785 0-1.52.17-2.208.515-.687.344-1.285.81-1.792 1.4-.507.588-.916 1.275-1.227 2.06-.31.786-.467 1.637-.467 2.553 0 .884.157 1.72.468 2.504.31.785.72 1.473 1.227 2.062.507.59 1.105 1.047 1.792 1.374.687.328 1.423.49 2.21.49.85 0 1.602-.162 2.257-.49.164-.098.335-.163.515-.196s.35-.05.515-.05c.458 0 .9.124 1.325.37.426.244.737.596.933 1.054.065.164.123.328.172.49.05.165.073.345.073.54 0 .46-.114.9-.343 1.327-.23.426-.573.737-1.03.933-1.408.655-2.88.982-4.42.982zm22.138-14.04c.95.46 1.727.933 2.332 1.424.605.49 1.08.98 1.424 1.472.344.49.59.974.737 1.448.147.475.237.908.27 1.3v.54c0 .917-.156 1.81-.466 2.676-.31.868-.793 1.645-1.448 2.332-.883.916-1.922 1.62-3.117 2.11-1.194.492-2.51.737-3.95.737-1.605 0-3.078-.368-4.42-1.104-1.34-.736-2.372-1.726-3.092-2.97-.23-.523-.344-.948-.344-1.276 0-.425.097-.826.294-1.202.196-.377.507-.68.932-.908.46-.23.868-.344 1.228-.344.392 0 .785.106 1.178.32.393.212.703.53.933.956.36.59.86.998 1.497 1.228.638.23 1.235.343 1.792.343.752 0 1.423-.098 2.012-.294.59-.197 1.064-.508 1.424-.933h-.05c.46-.458.688-1.08.688-1.865-.098-.197-.303-.41-.614-.64-.31-.228-.687-.465-1.13-.71-.44-.246-.907-.475-1.398-.688-.49-.212-.965-.368-1.423-.466l-.1-.048c-.72-.196-1.455-.466-2.208-.81-.752-.344-1.44-.794-2.06-1.35-.623-.556-1.13-1.22-1.523-1.988-.393-.77-.59-1.677-.59-2.725 0-.917.205-1.768.614-2.553.41-.786.974-1.473 1.694-2.062.72-.59 1.58-1.047 2.577-1.375.998-.327 2.07-.49 3.216-.49.752 0 1.538.122 2.356.368.817.245 1.553.58 2.208 1.006.36.23.646.532.86.908.212.377.318.76.318 1.154 0 .262-.04.49-.123.687-.08.196-.188.41-.32.638h.05c-.458.754-1.145 1.13-2.06 1.13-.427 0-.9-.13-1.425-.392l.098.05c-.294-.165-.622-.296-.982-.394-.36-.098-.687-.147-.98-.147-.558 0-1.032.065-1.425.196-.394.13-.72.278-.983.442-.262.163-.45.327-.564.49-.115.164-.172.28-.172.344 0 .13.017.278.05.44.033.165.13.345.294.54.164.197.426.402.786.615.36.212.867.417 1.522.613.262.066.736.197 1.423.393.688.197 1.408.476 2.16.836zm21.11 0c.948.46 1.725.933 2.33 1.424.606.49 1.08.98 1.424 1.472.343.49.588.974.736 1.448.147.475.237.908.27 1.3v.54c0 .917-.156 1.81-.467 2.676-.312.868-.794 1.645-1.45 2.332-.883.916-1.922 1.62-3.116 2.11-1.195.492-2.512.737-3.952.737-1.604 0-3.076-.368-4.418-1.104-1.342-.736-2.373-1.726-3.093-2.97-.228-.523-.342-.948-.342-1.276 0-.425.098-.826.294-1.202.197-.377.508-.68.933-.908.458-.23.867-.344 1.227-.344.393 0 .786.106 1.178.32.393.212.704.53.933.956.36.59.86.998 1.497 1.228.638.23 1.236.343 1.792.343.753 0 1.424-.098 2.013-.294.59-.197 1.063-.508 1.423-.933h-.05c.46-.458.69-1.08.69-1.865-.1-.197-.304-.41-.615-.64-.31-.228-.687-.465-1.13-.71-.44-.246-.907-.475-1.398-.688-.49-.212-.966-.368-1.424-.466l-.097-.048c-.72-.196-1.456-.466-2.21-.81-.752-.344-1.44-.794-2.06-1.35-.623-.556-1.13-1.22-1.523-1.988-.392-.77-.59-1.677-.59-2.725 0-.917.206-1.768.615-2.553.41-.786.974-1.473 1.694-2.062.72-.59 1.578-1.047 2.576-1.375.998-.327 2.07-.49 3.215-.49.754 0 1.54.122 2.357.368.82.245 1.555.58 2.21 1.006.36.23.646.532.86.908.21.377.318.76.318 1.154 0 .262-.04.49-.123.687-.082.196-.188.41-.32.638h.05c-.458.754-1.145 1.13-2.062 1.13-.425 0-.9-.13-1.423-.392l.098.05c-.295-.165-.622-.296-.982-.394-.36-.098-.687-.147-.982-.147-.555 0-1.03.065-1.422.196-.393.13-.72.278-.982.442-.262.163-.45.327-.565.49-.113.164-.17.28-.17.344 0 .13.016.278.05.44.03.165.13.345.293.54.164.197.425.402.785.615.36.212.868.417 1.522.613.262.066.737.197 1.424.393.687.197 1.407.476 2.16.836z" fill="#1EA3B9"/></g></svg>